# Blender 5.0.1
# www.blender.org
mtllib disp.mtl
o Cube
v -0.007000 -0.000007 0.014000
v -0.007000 0.001253 0.014000
v -0.007000 -0.000007 -0.014000
v 0.007000 -0.000007 0.014000
v 0.007000 0.001253 0.014000
v 0.007000 -0.000007 -0.014000
v -0.007000 -0.000007 0.011046
v 0.007000 -0.000007 0.011046
v -0.005465 0.000903 0.009528
v -0.005465 0.000903 -0.012482
v 0.005465 0.000903 -0.012482
v 0.005465 0.000903 0.009528
v -0.006200 0.000018 0.014008
v -0.006200 -0.000039 0.014594
v -0.006200 -0.000210 0.015156
v -0.006200 -0.000487 0.015675
v -0.006200 -0.000860 0.016130
v -0.006200 -0.001315 0.016503
v -0.006200 -0.001834 0.016780
v -0.006200 -0.002396 0.016951
v -0.006200 -0.002982 0.017008
v -0.006200 -0.003567 0.016951
v -0.006200 -0.004130 0.016780
v -0.006200 -0.004648 0.016503
v -0.006200 -0.005103 0.016130
v -0.006200 -0.005476 0.015675
v -0.006200 -0.005753 0.015156
v -0.006200 -0.005924 0.014594
v -0.006200 -0.005982 0.014008
v 0.006200 0.000018 0.014008
v 0.006200 -0.000039 0.014594
v 0.006200 -0.000210 0.015156
v 0.006200 -0.000487 0.015675
v 0.006200 -0.000860 0.016130
v 0.006200 -0.001315 0.016503
v 0.006200 -0.001834 0.016780
v 0.006200 -0.002396 0.016951
v 0.006200 -0.002982 0.017008
v 0.006200 -0.003567 0.016951
v 0.006200 -0.004130 0.016780
v 0.006200 -0.004648 0.016503
v 0.006200 -0.005103 0.016130
v 0.006200 -0.005476 0.015675
v 0.006200 -0.005753 0.015156
v 0.006200 -0.005924 0.014594
v 0.006200 -0.005982 0.014008
v -0.005465 0.001190 -0.012482
v -0.005527 0.001253 -0.012544
v -0.005483 0.001234 -0.012500
v 0.005465 0.001190 -0.012482
v 0.005527 0.001253 -0.012544
v 0.005483 0.001234 -0.012500
v -0.005527 0.001253 0.009590
v -0.005465 0.001190 0.009528
v -0.005483 0.001234 0.009546
v 0.005465 0.001190 0.009528
v 0.005527 0.001253 0.009590
v 0.005483 0.001234 0.009546
v -0.006921 0.001253 0.010968
v -0.007000 0.001174 0.011046
v -0.007000 0.001253 0.011124
v -0.006922 0.001253 0.011046
v -0.006977 0.001230 0.011023
v -0.006921 0.001253 -0.013922
v -0.007000 0.001174 -0.014000
v -0.006977 0.001230 -0.013977
v 0.006921 0.001253 -0.013922
v 0.007000 0.001174 -0.014000
v 0.006977 0.001230 -0.013977
v 0.007000 0.001174 0.011046
v 0.006921 0.001253 0.010968
v 0.006922 0.001253 0.011046
v 0.007000 0.001253 0.011124
v 0.006977 0.001230 0.011023
vn -0.0000 -0.0000 1.0000
vn -0.0000 -1.0000 -0.0000
vn -0.0000 1.0000 -0.0000
vn -0.0000 0.5556 -0.8315
vn -0.0000 0.3827 -0.9239
vn -0.0000 -0.7071 -0.7071
vn -0.0000 -0.8315 -0.5556
vn -0.0000 0.7071 -0.7071
vn -0.0000 -0.5556 -0.8315
vn -0.0000 0.8315 -0.5556
vn -0.0000 -0.3827 -0.9239
vn -0.0000 0.9239 -0.3827
vn -0.0000 -0.1951 -0.9808
vn -0.0000 0.9808 -0.1951
vn -0.0000 -0.0000 -1.0000
vn -0.0000 -0.9808 -0.1951
vn -0.0000 -0.9952 -0.0980
vn -0.0000 0.9952 -0.0980
vn -0.0000 0.1951 -0.9808
vn -0.0000 -0.9239 -0.3827
vn 0.9231 0.3845 -0.0000
vn 0.3808 0.9246 -0.0000
vn -0.0000 0.3808 0.9247
vn -0.0000 0.9231 0.3846
vn -0.9231 0.3845 -0.0000
vn -0.3808 0.9246 -0.0000
vn -0.0000 0.9231 -0.3846
vn -0.0000 0.3808 -0.9247
vn 1.0000 -0.0000 -0.0000
vn -1.0000 -0.0000 -0.0000
vn -0.6057 0.7631 -0.2252
vn 0.6057 0.7631 -0.2252
vn -0.3815 0.9244 -0.0000
vn -0.9234 0.3839 -0.0000
vn -0.0000 0.9228 -0.3852
vn -0.0000 0.3802 -0.9249
vn 0.3815 0.9244 -0.0000
vn 0.9234 0.3839 -0.0000
vt 0.375000 0.750000
vt 0.625000 0.750000
vt 0.625000 1.000000
vt 0.375000 1.000000
vt 0.125000 0.723626
vt 0.375000 0.723626
vt 0.125000 0.750000
vt 0.125000 0.500000
vt 0.375000 0.500000
vt 0.652416 0.527415
vt 0.847585 0.527415
vt 0.847585 0.696211
vt 0.652415 0.696211
vt 0.000000 0.000000
vt 0.847585 0.696211
vt 0.847585 0.527415
vt 0.848705 0.526295
vt 0.848705 0.697331
vt 0.652416 0.527416
vt 0.651295 0.526295
vt 0.651295 0.697331
vt 0.625000 0.027067
vt 0.622724 0.026475
vt 0.609461 0.026374
vt 0.625000 0.026024
vt 0.625000 0.026374
vt 0.609461 0.723626
vt 0.623483 0.723423
vt 0.626053 0.722400
vt 0.626399 0.723626
vt 0.625000 0.724326
vt 0.873596 0.722223
vt 0.873596 0.501404
vt 0.874794 0.500102
vt 0.875000 0.723423
vt 0.625000 0.250104
vt 0.609461 0.250000
vt 0.626404 0.501404
vt 0.625103 0.499999
vt 0.609461 0.500000
vt 0.375000 0.026374
vt 0.375000 0.250000
vt 0.873601 0.723626
vt 0.875000 0.724326
vt 0.875000 0.750000
vt 0.375000 0.000000
vt 0.625000 0.000000
s 0
usemtl Material.001
f 3/8/2 6/9/2 8/6/2 7/5/2
f 54/15/21 47/16/21 49/11/21 55/12/21
f 55/12/22 49/11/22 48/17/22 53/18/22
f 47/16/23 50/19/23 52/10/23 49/11/23
f 49/11/24 52/10/24 51/20/24 48/17/24
f 50/19/25 56/13/25 58/13/25 52/10/25
f 52/10/26 58/13/26 57/21/26 51/20/26
f 53/18/27 57/21/27 58/13/27 55/12/27
f 55/12/28 58/13/28 56/13/28 54/15/28
f 47/16/29 54/15/29 9/12/29 10/11/29
f 50/19/1 47/16/1 10/11/1 11/10/1
f 56/13/30 50/19/30 11/10/30 12/13/30
f 54/15/15 56/13/15 12/13/15 9/12/15
f 59/22/31 63/23/31 60/24/31 61/25/31 62/26/31
f 70/27/32 74/28/32 71/29/32 72/30/32 73/31/32
f 59/32/33 64/33/33 66/34/33 63/35/33
f 63/23/34 66/36/34 65/37/34 60/24/34
f 64/33/35 67/38/35 69/39/35 66/34/35
f 66/36/36 69/39/36 68/40/36 65/37/36
f 67/38/37 71/29/37 74/28/37 69/39/37
f 69/39/38 74/28/38 70/27/38 68/40/38
f 53/18/3 48/17/3 64/33/3 59/32/3
f 7/41/30 60/24/30 65/37/30 3/42/30
f 57/21/3 53/18/3 59/32/3 62/43/3 72/30/3 71/29/3
f 3/42/15 65/37/15 68/40/15 6/9/15
f 48/17/3 51/20/3 67/38/3 64/33/3
f 6/9/29 68/40/29 70/27/29 8/6/29
f 51/20/3 57/21/3 71/29/3 67/38/3
usemtl Material.002
f 4/1/1 5/2/1 2/3/1 1/4/1
f 7/5/2 8/6/2 4/1/2 1/7/2
f 73/31/3 72/30/3 62/43/3 61/44/3 2/45/3 5/2/3
f 1/46/30 2/47/30 61/25/30 60/24/30 7/41/30
f 8/6/29 70/27/29 73/31/29 5/2/29 4/1/29
s 1
usemtl Material.003
f 24/14/4 23/14/5 40/14/5 41/14/4
f 17/14/6 16/14/7 33/14/7 34/14/6
f 25/14/8 24/14/4 41/14/4 42/14/8
f 18/14/9 17/14/6 34/14/6 35/14/9
f 26/14/10 25/14/8 42/14/8 43/14/10
f 19/14/11 18/14/9 35/14/9 36/14/11
f 27/14/12 26/14/10 43/14/10 44/14/12
f 20/14/13 19/14/11 36/14/11 37/14/13
f 28/14/14 27/14/12 44/14/12 45/14/14
f 21/14/15 20/14/13 37/14/13 38/14/15
f 14/14/16 13/14/17 30/14/17 31/14/16
f 29/14/18 28/14/14 45/14/14 46/14/18
f 22/14/19 21/14/15 38/14/15 39/14/19
f 15/14/20 14/14/16 31/14/16 32/14/20
f 23/14/5 22/14/19 39/14/19 40/14/5
f 16/14/7 15/14/20 32/14/20 33/14/7
s 0
usemtl Material.004
f 11/10/3 10/11/3 9/12/3 12/13/3
